<?xml version="1.0" standalone="no"?>
<!DOCTYPE svg PUBLIC "-//W3C//DTD SVG 20010904//EN"
 "http://www.w3.org/TR/2001/REC-SVG-20010904/DTD/svg10.dtd">
<svg version="1.0" xmlns="http://www.w3.org/2000/svg"
 width="840.000000pt" height="859.000000pt" viewBox="0 0 840.000000 859.000000"
 preserveAspectRatio="xMidYMid meet">

<g transform="translate(0.000000,859.000000) scale(0.100000,-0.100000)"
fill="#000000" stroke="none">
<path d="M4123 7645 c-69 -69 -121 -125 -115 -125 11 0 252 233 252 244 0 14
-18 -1 -137 -119z"/>
<path d="M4296 7645 c-70 -69 -123 -125 -118 -125 4 0 62 54 128 120 141 143
129 130 122 130 -3 0 -62 -56 -132 -125z"/>
<path d="M3951 7634 c-68 -69 -121 -127 -117 -131 7 -7 230 209 247 240 20 36
-10 11 -130 -109z"/>
<path d="M4460 7635 c-69 -69 -120 -125 -114 -125 11 0 254 235 254 245 0 16
-29 -9 -140 -120z"/>
<path d="M3788 7617 c-65 -66 -115 -123 -113 -127 5 -8 245 233 245 244 0 15
-24 -6 -132 -117z"/>
<path d="M4629 7619 c-65 -66 -119 -123 -119 -126 0 -10 76 56 155 134 98 98
111 113 96 113 -7 0 -66 -54 -132 -121z"/>
<path d="M4799 7599 c-58 -60 -104 -109 -101 -109 17 0 232 199 232 215 0 21
-40 -12 -131 -106z"/>
<path d="M3618 7588 c-95 -94 -122 -128 -103 -128 19 0 226 225 214 233 -2 1
-52 -46 -111 -105z"/>
<path d="M4986 7585 c-92 -92 -106 -112 -56 -79 32 22 170 156 170 166 0 21
-27 0 -114 -87z"/>
<path d="M3448 7549 c-91 -92 -111 -119 -90 -119 9 0 146 142 175 180 15 21
22 41 15 40 -2 -1 -47 -46 -100 -101z"/>
<path d="M5220 7612 c-33 -21 -156 -152 -144 -152 15 0 48 28 118 98 62 62 73
85 26 54z"/>
<path d="M3277 7498 c-73 -75 -103 -118 -83 -118 8 0 142 143 160 171 34 54
12 39 -77 -53z"/>
<path d="M5380 7560 c-22 -13 -150 -144 -145 -148 8 -8 63 35 123 95 55 56 66
80 22 53z"/>
<path d="M3118 7449 c-43 -43 -78 -87 -78 -98 0 -33 133 107 153 162 3 9 5 17
4 16 -1 0 -37 -36 -79 -80z"/>
<path d="M5462 7433 c-53 -55 -58 -64 -37 -59 15 4 53 34 85 66 50 50 56 60
37 60 -14 -1 -45 -25 -85 -67z"/>
<path d="M2975 7403 c-33 -35 -66 -70 -72 -78 -7 -7 -13 -22 -13 -31 0 -12 22
4 65 49 36 37 65 73 65 81 0 8 5 16 12 18 6 2 9 9 7 15 -2 6 -31 -18 -64 -54z"/>
<path d="M5673 7421 c-18 -9 -33 -19 -33 -23 0 -10 -65 -74 -82 -82 -7 -3 3
-4 22 -1 25 4 50 21 93 65 60 60 60 71 0 41z"/>
<path d="M2819 7342 c-46 -46 -79 -99 -79 -124 0 -7 7 -3 14 8 8 12 38 44 65
73 28 28 51 60 51 71 0 11 -1 20 -2 20 -2 0 -24 -22 -49 -48z"/>
<path d="M5779 7303 c-80 -71 -82 -73 -69 -73 23 0 71 32 115 75 63 63 25 61
-46 -2z"/>
<path d="M2668 7267 c-39 -41 -78 -107 -62 -107 10 0 86 86 101 113 24 47 11
45 -39 -6z"/>
<path d="M5960 7250 c0 -5 -5 -10 -11 -10 -6 0 -22 -14 -36 -31 -15 -17 -36
-35 -47 -40 -17 -8 -14 -9 14 -5 25 3 50 18 85 50 46 44 47 46 22 46 -15 0
-27 -4 -27 -10z"/>
<path d="M2518 7183 c-34 -37 -48 -61 -47 -81 0 -15 3 -21 6 -13 3 8 20 27 38
42 32 28 60 80 54 96 -2 5 -25 -15 -51 -44z"/>
<path d="M6096 7157 c-10 -7 -33 -27 -51 -44 -18 -18 -38 -33 -45 -33 -7 0
-11 -2 -8 -5 9 -9 88 7 88 17 0 5 17 25 38 43 30 29 33 35 17 34 -11 0 -28 -6
-39 -12z"/>
<path d="M2373 7091 c-27 -29 -43 -55 -43 -71 0 -23 3 -22 46 22 33 34 44 54
42 71 -3 23 -6 21 -45 -22z"/>
<path d="M6203 7037 c-10 -12 -29 -31 -43 -41 l-25 -18 38 5 c27 4 49 17 72
42 l34 35 -29 0 c-18 0 -35 -9 -47 -23z"/>
<path d="M2258 7020 c-9 -17 -24 -30 -31 -30 -16 0 -27 -30 -27 -70 1 -23 1
-24 12 -6 6 11 24 32 40 47 18 19 28 38 28 59 0 16 -1 30 -2 30 -2 0 -11 -14
-20 -30z"/>
<path d="M3990 6989 c-25 -4 -94 -14 -155 -24 -60 -9 -135 -20 -165 -23 -51
-7 -55 -9 -53 -32 2 -37 21 -183 37 -285 8 -49 19 -128 25 -175 7 -47 17 -109
22 -138 10 -49 13 -53 32 -47 12 3 39 9 60 12 37 6 39 7 33 37 -8 46 -29 198
-30 221 -1 16 9 22 59 32 33 6 90 15 128 18 l67 7 0 31 c0 63 -9 77 -49 77
-20 -1 -65 -7 -101 -15 -36 -8 -79 -14 -95 -15 -30 0 -31 2 -43 65 -21 112
-21 111 51 119 34 4 103 12 152 19 l90 13 -3 49 c-2 28 -7 52 -10 56 -4 3 -27
2 -52 -2z"/>
<path d="M4414 6968 c-10 -12 -52 -99 -139 -283 -93 -198 -147 -311 -155 -327
-12 -22 -2 -28 63 -35 l52 -5 24 53 c14 30 26 56 28 58 5 8 148 1 199 -10 l51
-10 16 -58 c15 -53 19 -59 48 -65 17 -3 45 -6 61 -6 28 0 30 2 25 28 -7 32
-30 124 -51 202 -19 69 -68 258 -97 370 -12 47 -22 86 -23 87 0 0 -22 4 -47 8
-32 5 -48 3 -55 -7z m96 -432 c0 -17 -5 -18 -46 -12 -26 3 -64 6 -85 6 -47 0
-48 9 -15 77 14 26 36 73 50 104 14 30 29 59 33 62 7 8 63 -203 63 -237z"/>
<path d="M6362 6953 c-13 -5 -72 -61 -72 -69 0 -2 12 -4 26 -4 16 0 38 13 60
36 19 20 34 38 34 40 0 5 -33 3 -48 -3z"/>
<path d="M2131 6935 c-1 -5 -15 -25 -31 -44 -17 -18 -30 -45 -30 -58 0 -24 1
-23 33 9 40 39 47 56 36 83 -4 11 -8 16 -8 10z"/>
<path d="M6460 6820 c-16 -16 -34 -30 -40 -30 -6 0 -8 -5 -5 -11 12 -18 63 1
99 37 l34 34 -29 0 c-20 0 -40 -10 -59 -30z"/>
<path d="M4994 6826 c-49 -18 -97 -60 -123 -107 -32 -60 -81 -193 -93 -254
-13 -62 -4 -152 16 -174 9 -10 16 -21 16 -25 0 -13 54 -57 95 -79 54 -28 185
-31 212 -4 11 10 13 17 5 17 -7 0 -12 5 -12 11 0 6 -7 26 -16 44 -15 32 -17
33 -50 23 -42 -11 -96 4 -127 35 -31 31 -28 111 7 207 15 41 30 86 33 99 9 39
85 111 117 111 53 0 97 -29 132 -88 3 -5 104 49 104 56 0 12 -73 87 -102 105
-15 9 -36 17 -47 17 -11 0 -23 5 -26 10 -8 13 -102 11 -141 -4z"/>
<path d="M1994 6806 c-3 -9 -12 -16 -19 -16 -16 0 -25 -22 -25 -58 l1 -27 18
23 c11 12 24 22 29 22 12 0 22 59 10 66 -4 3 -11 -2 -14 -10z"/>
<path d="M3250 6813 c-83 -15 -188 -72 -211 -116 -7 -12 -16 -25 -21 -28 -5
-3 -9 -38 -9 -78 0 -77 14 -112 66 -161 31 -29 124 -39 195 -20 91 24 129 24
156 -1 32 -30 33 -89 2 -120 -39 -37 -108 -61 -175 -61 l-61 0 -20 -46 -21
-47 22 -12 c66 -37 256 12 332 84 47 45 65 85 65 145 0 80 -39 150 -102 182
-41 21 -91 19 -207 -8 -82 -19 -125 -5 -136 43 -10 44 2 68 47 102 35 25 50
29 103 29 61 0 63 1 79 34 25 53 21 72 -15 80 -33 6 -48 6 -89 -1z"/>
<path d="M6570 6702 c-14 -16 -32 -31 -40 -35 -8 -3 6 -6 33 -6 34 -1 47 3 47
13 0 8 15 23 33 35 l32 21 -40 0 c-32 0 -46 -6 -65 -28z"/>
<path d="M1868 6690 c-7 -11 -18 -20 -25 -20 -9 0 -13 -15 -13 -42 l1 -43 17
28 c9 15 22 27 29 27 8 0 13 13 13 35 0 40 -5 43 -22 15z"/>
<path d="M5437 6642 l-26 -40 32 -24 c18 -13 49 -34 70 -47 20 -12 37 -29 37
-36 0 -8 -26 -53 -58 -102 -110 -165 -152 -232 -152 -242 0 -5 -3 -11 -7 -13
-10 -4 -53 -65 -53 -73 0 -4 -7 -13 -15 -22 -14 -13 -13 -17 9 -34 13 -10 29
-19 34 -19 5 0 15 -7 22 -15 14 -17 40 -20 40 -5 0 12 41 73 53 78 4 2 7 8 7
13 0 9 47 84 172 272 21 32 38 61 38 63 0 3 7 12 15 21 14 14 18 14 34 -1 10
-9 22 -16 28 -16 6 0 13 -4 15 -8 3 -9 72 -52 82 -52 8 0 56 77 56 90 0 5 -7
10 -15 10 -8 0 -15 3 -15 8 0 4 -20 18 -45 32 -25 14 -45 28 -45 32 0 5 -4 8
-9 8 -9 0 -105 60 -128 80 -7 5 -15 10 -18 10 -7 0 -68 42 -75 52 -3 3 -17 9
-31 13 -22 5 -29 1 -52 -33z"/>
<path d="M6696 6584 c-10 -14 -27 -29 -39 -34 -18 -7 -15 -9 19 -9 32 -1 46 5
67 27 34 36 34 42 -2 42 -20 0 -34 -8 -45 -26z"/>
<path d="M1755 6575 c-11 -13 -26 -24 -32 -25 -8 0 -13 -15 -13 -42 l0 -42 36
36 c27 29 35 44 32 67 l-3 31 -20 -25z"/>
<path d="M2673 6516 c-23 -17 -42 -35 -43 -40 0 -8 87 -145 100 -156 3 -3 13
-16 22 -30 9 -14 46 -68 83 -120 36 -52 87 -127 113 -167 26 -40 53 -72 61
-73 17 0 91 58 91 72 0 6 -13 27 -29 47 -15 20 -63 88 -106 151 -43 63 -91
131 -106 151 -16 20 -29 41 -29 47 0 6 -3 12 -7 14 -5 2 -26 29 -47 61 -22 32
-45 62 -50 66 -7 5 -28 -4 -53 -23z"/>
<path d="M1633 6442 c-15 -15 -23 -35 -23 -58 l0 -35 30 33 c31 33 34 42 22
68 -6 12 -11 11 -29 -8z"/>
<path d="M6793 6444 c-29 -32 -29 -34 7 -34 18 0 33 6 36 15 4 9 18 22 33 30
l26 14 -40 0 c-29 -1 -46 -8 -62 -25z"/>
<path d="M7325 6431 c11 -5 61 -14 110 -20 50 -7 119 -17 155 -22 36 -6 93
-14 128 -19 35 -4 65 -10 68 -12 4 -4 -42 -118 -92 -226 -13 -29 -24 -56 -24
-59 0 -7 -34 -84 -51 -115 -15 -29 -11 -84 9 -99 26 -22 50 -31 259 -99 l192
-62 -26 -42 c-26 -40 -47 -72 -151 -229 -29 -43 -52 -82 -52 -86 0 -5 -5 -11
-11 -13 -18 -6 -16 -87 1 -99 11 -8 7 -9 -17 -5 -25 4 -31 2 -26 -9 3 -9 -1
-15 -11 -15 -9 0 -16 -6 -16 -13 0 -7 -9 -20 -20 -30 -11 -9 -17 -23 -14 -31
3 -8 1 -17 -5 -21 -7 -3 -8 0 -5 9 3 9 1 16 -5 16 -6 0 -11 -3 -12 -7 -3 -39
-9 -66 -15 -72 -4 -3 -4 6 0 22 7 29 -8 38 -18 11 -4 -10 -14 -14 -24 -12 -15
4 -17 0 -14 -24 6 -43 -14 -61 -62 -55 -21 3 -42 11 -46 17 -4 7 -14 10 -21 8
-8 -3 -1 -10 16 -18 l30 -13 -40 -41 c-39 -40 -40 -41 -64 -23 -27 19 -41 22
-41 7 0 -5 7 -10 15 -10 17 0 17 0 88 -61 26 -23 47 -45 47 -49 0 -4 -11 -19
-25 -34 -18 -19 -31 -25 -45 -21 -11 4 -20 11 -20 16 0 5 -5 9 -10 9 -6 0 -24
10 -40 22 -23 16 -33 19 -42 10 -8 -8 -8 -15 1 -26 11 -13 8 -14 -19 -11 -24
3 -30 1 -23 -8 6 -8 2 -25 -9 -47 -10 -20 -18 -28 -18 -17 0 22 -13 22 -33 -1
-9 -10 -14 -27 -11 -39 3 -11 1 -24 -4 -27 -6 -4 -8 2 -5 14 3 11 0 20 -6 20
-10 0 -15 -19 -12 -47 1 -6 -3 -14 -8 -17 -5 -3 -8 2 -7 11 0 9 -5 18 -12 20
-7 3 -10 -1 -6 -11 4 -10 1 -16 -9 -16 -9 0 -19 -15 -25 -37 -10 -37 -10 -36
-11 25 -1 34 -5 62 -10 62 -6 0 -12 19 -14 43 -2 23 -2 -12 1 -78 2 -66 8
-133 13 -149 12 -37 12 -290 0 -336 -5 -19 -11 -100 -13 -180 -3 -80 -3 -126
-1 -102 2 23 8 42 14 42 5 0 9 7 9 15 0 8 4 15 10 15 13 0 50 37 50 50 0 6 7
10 15 10 8 0 17 11 21 25 6 26 29 34 36 13 3 -9 6 -9 12 0 4 7 2 12 -3 12 -6
0 -11 7 -11 16 0 14 2 15 17 3 15 -12 16 -12 10 4 -4 11 -2 17 8 17 8 0 15 7
15 15 0 8 7 15 15 15 8 0 15 7 15 15 0 8 6 15 14 15 8 0 17 7 20 16 4 9 13 14
21 10 9 -3 15 0 15 8 0 8 -7 16 -15 20 -21 8 -19 50 4 70 18 17 71 14 71 -4 0
-4 7 -10 15 -14 23 -9 19 -2 -45 65 -61 63 -75 101 -44 113 36 14 62 3 119
-50 33 -30 61 -51 63 -45 2 6 -4 18 -12 27 -9 8 -16 17 -16 19 0 14 59 54 87
60 18 3 33 11 33 17 0 7 4 7 13 0 8 -7 16 -6 24 3 7 8 9 16 4 20 -5 3 -12 -1
-14 -7 -3 -8 -6 -6 -6 5 -1 9 6 17 14 17 8 0 15 7 15 15 0 8 7 15 15 15 8 0
17 11 21 24 3 14 15 27 30 30 14 4 26 16 30 31 3 14 12 25 20 25 8 0 14 10 14
22 0 21 0 21 15 2 14 -18 14 -18 15 10 0 25 2 27 17 15 15 -12 16 -12 10 3 -4
13 -2 15 11 11 14 -6 15 -4 4 9 -11 13 -9 17 13 22 14 4 25 13 25 21 0 10 6
12 18 8 15 -6 15 -5 3 10 -12 15 -11 17 3 17 9 0 16 7 16 15 0 8 6 15 14 15
16 0 66 45 66 60 0 5 5 10 11 10 11 0 69 60 69 72 0 5 5 8 10 8 21 0 8 -21
-43 -72 -88 -89 -207 -230 -213 -254 -7 -27 19 -67 56 -86 14 -7 36 -23 50
-36 14 -12 33 -25 43 -28 9 -3 17 -10 17 -15 0 -5 6 -9 13 -9 8 0 22 -9 32
-20 10 -12 24 -19 31 -16 7 3 15 1 18 -5 2 -5 3 -4 2 3 -2 7 -10 12 -19 12 -9
-1 -13 4 -10 12 3 8 0 14 -7 14 -11 0 -75 48 -125 93 -11 10 -32 26 -47 35
-16 9 -28 20 -28 25 0 13 35 54 159 185 58 63 118 127 134 143 29 32 36 79 15
97 -17 13 -101 58 -278 149 -80 41 -147 76 -148 78 -4 3 37 64 49 75 3 3 9 12
13 20 11 23 26 47 89 142 31 48 57 92 57 97 0 6 4 11 8 11 17 0 45 67 39 91
-6 24 -56 59 -82 59 -14 0 -191 54 -230 70 -11 5 -33 11 -50 15 -16 3 -49 13
-73 22 -36 13 -41 19 -36 37 7 23 28 75 49 121 8 17 17 42 21 58 3 15 10 27
15 27 5 0 9 9 9 20 0 11 9 37 20 57 11 21 20 45 20 55 0 9 5 18 11 20 17 6 24
104 9 113 -18 11 -157 35 -206 35 -22 0 -85 7 -140 15 -54 8 -108 15 -119 14
l-20 0 20 -8z m466 -1272 c-5 -13 -10 -19 -10 -12 -1 15 10 45 15 40 3 -2 0
-15 -5 -28z m443 -184 c-4 -8 -8 -15 -10 -15 -2 0 -4 7 -4 15 0 8 4 15 10 15
5 0 7 -7 4 -15z m-603 -52 c40 -29 52 -66 27 -91 -14 -14 -68 -16 -68 -2 0 6
-6 10 -13 10 -12 0 -47 34 -47 46 0 5 52 63 58 64 2 0 21 -12 43 -27z m-1
-158 c7 -8 17 -15 23 -15 20 0 47 -43 41 -64 -16 -50 -68 -46 -121 10 l-22 24
27 29 c32 34 36 35 52 16z m-170 -12 c48 -33 120 -99 120 -109 0 -7 -48 -54
-56 -54 -6 0 -47 23 -54 30 -3 3 -24 20 -47 39 -49 37 -56 70 -20 94 28 20 28
20 57 0z m-94 -25 c-16 -22 -16 -22 -16 -1 0 12 6 23 13 26 19 7 20 0 3 -25z
m-72 -54 c3 -8 2 -12 -4 -9 -6 3 -10 10 -10 16 0 14 7 11 14 -7z m-86 -100 c0
-17 -3 -22 -8 -13 -5 6 -6 18 -3 26 8 19 11 16 11 -13z m283 6 c51 -43 99 -94
99 -105 0 -6 -11 -22 -24 -34 l-25 -23 -33 23 c-48 32 -108 96 -108 113 0 20
28 46 49 46 10 0 29 -9 42 -20z m192 -15 c42 -41 43 -42 18 -72 -26 -31 -43
-29 -85 12 -41 39 -43 47 -18 74 25 28 45 25 85 -14z"/>
<path d="M2298 6205 l-167 -165 38 -40 37 -40 63 60 c34 33 65 60 68 60 3 0
92 -88 198 -195 106 -107 196 -195 201 -195 6 0 28 18 49 40 l39 40 -179 182
c-99 100 -188 190 -197 199 -10 9 -18 19 -18 23 0 4 25 30 55 58 30 28 55 57
55 63 0 16 -51 75 -65 75 -5 0 -85 -75 -177 -165z"/>
<path d="M1540 6328 c0 -10 -9 -23 -20 -30 -23 -15 -28 -68 -6 -68 8 0 16 7
20 15 3 8 12 15 21 15 19 0 20 40 0 66 -13 17 -14 17 -15 2z"/>
<path d="M6895 6313 l-30 -28 28 -3 c28 -3 93 39 80 52 -14 14 -50 4 -78 -21z"/>
<path d="M5987 6237 c-39 -42 -162 -171 -329 -344 -48 -50 -88 -95 -88 -100 0
-5 17 -26 39 -47 48 -47 41 -50 184 103 59 64 157 167 217 230 l110 114 -38
43 c-20 23 -41 42 -47 43 -5 0 -27 -19 -48 -42z"/>
<path d="M1433 6174 c-15 -14 -23 -33 -23 -55 l0 -34 31 32 c26 25 30 35 23
54 l-9 24 -22 -21z"/>
<path d="M6990 6170 l-34 -30 34 0 c31 1 90 36 90 55 0 17 -60 0 -90 -25z"/>
<path d="M1343 6032 c-23 -23 -32 -72 -13 -72 6 0 20 10 31 21 17 17 19 27 13
48 l-9 26 -22 -23z"/>
<path d="M7090 6040 c-11 -11 -25 -20 -32 -20 -16 0 24 -29 40 -30 17 0 73 55
65 64 -13 13 -54 5 -73 -14z"/>
<path d="M1271 5908 c-1 -25 -10 -33 -34 -29 -8 1 0 -58 9 -68 2 -2 15 7 29
20 24 23 35 69 16 69 -5 0 -12 8 -14 18 -3 10 -5 6 -6 -10z"/>
<path d="M6176 5903 c-24 -7 -120 -65 -124 -75 -2 -4 -9 -8 -16 -8 -7 0 -21
-9 -31 -20 -10 -11 -22 -20 -27 -20 -17 0 -100 -85 -119 -122 -27 -53 -26
-147 4 -206 46 -94 120 -142 217 -142 73 0 103 12 214 84 156 102 199 160 198
266 0 94 -43 170 -127 224 -30 19 -147 31 -189 19z m152 -129 c56 -39 66 -125
21 -179 -13 -16 -71 -59 -128 -97 -91 -59 -111 -68 -150 -68 -37 0 -51 6 -78
32 -29 28 -33 38 -33 83 0 61 23 89 129 159 134 88 190 105 239 70z"/>
<path d="M7160 5886 l-23 -25 26 -6 c28 -8 92 29 82 46 -12 18 -61 9 -85 -15z"/>
<path d="M1189 5748 c-7 -16 -17 -24 -25 -21 -18 7 -18 -7 -1 -41 l14 -26 21
23 c23 25 28 53 13 76 -8 12 -12 10 -22 -11z"/>
<path d="M7247 5742 c-10 -10 -17 -24 -17 -30 0 -17 50 -15 56 3 4 8 12 15 20
15 8 0 14 7 14 15 0 22 -53 19 -73 -3z"/>
<path d="M1920 5737 c0 -9 -6 -22 -13 -29 -34 -34 -27 -54 45 -133 15 -16 28
-35 28 -42 0 -6 4 -13 9 -15 5 -1 32 -34 62 -73 29 -38 55 -72 59 -75 3 -3 30
-36 60 -75 30 -38 60 -76 67 -83 7 -7 27 -33 44 -57 18 -25 35 -45 38 -45 11
0 39 36 46 59 3 12 11 21 16 21 18 0 8 23 -30 71 -39 50 -39 50 -23 79 9 17
20 30 25 30 4 0 7 5 7 11 0 6 13 30 28 53 15 22 31 49 35 59 10 27 33 31 88
13 28 -10 52 -16 53 -14 30 41 66 101 66 107 0 5 -15 11 -32 14 -38 6 -123 23
-333 66 -82 17 -184 38 -225 46 -41 8 -85 17 -97 21 -17 5 -23 2 -23 -9z m242
-148 c9 -5 28 -9 41 -9 63 0 154 -47 119 -62 -4 -1 -23 -29 -42 -60 -19 -32
-37 -58 -40 -58 -3 0 -22 21 -42 48 -20 26 -46 58 -58 72 -12 14 -29 34 -39
45 -36 43 -36 47 6 39 21 -4 46 -11 55 -15z"/>
<path d="M1111 5584 c-20 -21 -22 -28 -13 -49 l11 -25 26 26 c19 18 24 31 19
50 -8 30 -13 30 -43 -2z"/>
<path d="M7311 5584 c-20 -21 -22 -27 -10 -35 8 -5 18 -9 23 -9 16 0 62 46 58
58 -7 21 -46 13 -71 -14z"/>
<path d="M1053 5436 c-26 -27 -29 -46 -11 -64 9 -9 17 -7 35 10 26 24 28 37
11 61 -12 15 -15 15 -35 -7z"/>
<path d="M7377 5432 c-21 -22 -24 -31 -15 -40 18 -18 33 -15 62 15 26 25 26
28 10 40 -24 18 -26 17 -57 -15z"/>
<path d="M6650 5351 c-25 -8 -59 -20 -77 -28 -17 -7 -38 -13 -47 -13 -9 0 -24
-4 -34 -9 -9 -5 -51 -19 -92 -32 -41 -12 -84 -25 -95 -30 -37 -14 -145 -49
-154 -49 -5 0 -30 -9 -55 -20 -45 -19 -45 -19 -31 -47 8 -15 15 -38 15 -49 0
-12 6 -24 13 -27 11 -4 123 26 157 43 9 4 31 11 50 15 19 4 41 11 50 15 35 18
140 47 140 39 0 -5 -8 -17 -17 -27 -20 -21 -41 -46 -98 -117 -22 -27 -42 -52
-45 -55 -3 -3 -30 -36 -60 -75 -30 -38 -57 -72 -60 -75 -28 -27 -30 -38 -15
-88 16 -53 28 -61 63 -43 14 7 242 81 457 148 138 44 145 50 127 108 -21 62
-16 62 -178 10 -82 -26 -165 -54 -186 -62 -48 -20 -68 -14 -42 13 11 10 38 42
60 69 21 28 41 52 44 55 3 3 23 28 45 55 22 28 47 59 57 70 100 120 98 114 70
180 l-17 40 -45 -14z"/>
<path d="M994 5274 c-20 -20 -20 -25 -7 -52 l14 -30 25 25 c16 16 23 31 19 43
-10 33 -29 38 -51 14z"/>
<path d="M7425 5270 c-20 -22 -14 -50 12 -50 22 0 67 46 58 60 -10 17 -51 11
-70 -10z"/>
<path d="M1700 5217 c-64 -58 -100 -142 -100 -233 0 -119 84 -204 202 -204 80
0 115 27 167 130 57 112 72 130 109 130 43 0 79 -25 87 -61 7 -32 -13 -139
-27 -139 -4 0 -8 -6 -8 -13 0 -7 -15 -28 -34 -46 l-35 -33 22 -44 c13 -27 28
-44 38 -44 30 0 84 62 119 135 29 62 33 80 34 155 1 87 -9 114 -55 161 -47 47
-145 69 -202 45 -51 -21 -78 -53 -123 -144 -21 -42 -47 -85 -59 -94 -53 -45
-125 0 -125 78 0 50 19 92 63 140 18 20 25 34 18 38 -6 4 -18 22 -27 41 -9 19
-19 35 -23 35 -3 0 -22 -15 -41 -33z"/>
<path d="M7592 5174 c-7 -8 -8 -14 -3 -14 10 0 25 19 20 25 -2 1 -10 -3 -17
-11z"/>
<path d="M7740 5180 c0 -5 5 -10 10 -10 6 0 10 5 10 10 0 6 -4 10 -10 10 -5 0
-10 -4 -10 -10z"/>
<path d="M7710 5150 c0 -5 5 -10 10 -10 6 0 10 5 10 10 0 6 -4 10 -10 10 -5 0
-10 -4 -10 -10z"/>
<path d="M7543 5143 c9 -2 23 -2 30 0 6 3 -1 5 -18 5 -16 0 -22 -2 -12 -5z"/>
<path d="M953 5114 c-13 -14 -19 -31 -16 -43 7 -27 31 -34 38 -10 4 10 13 19
21 19 13 0 12 4 -1 30 -9 17 -17 30 -18 29 -1 -1 -12 -12 -24 -25z"/>
<path d="M7470 5103 c-18 -23 -19 -28 -6 -41 13 -13 19 -12 50 15 25 23 31 34
23 42 -19 19 -44 12 -67 -16z"/>
<path d="M7680 5120 c0 -5 5 -10 10 -10 6 0 10 5 10 10 0 6 -4 10 -10 10 -5 0
-10 -4 -10 -10z"/>
<path d="M7650 5090 c0 -5 5 -10 10 -10 6 0 10 5 10 10 0 6 -4 10 -10 10 -5 0
-10 -4 -10 -10z"/>
<path d="M911 4946 l-22 -24 25 -28 c20 -22 25 -25 26 -12 0 10 9 22 20 28 19
10 19 12 4 35 -20 31 -25 31 -53 1z"/>
<path d="M7377 4955 c3 -8 9 -12 14 -9 12 7 11 11 -5 17 -10 4 -13 1 -9 -8z"/>
<path d="M4848 4942 c-21 -10 -49 -29 -63 -42 -51 -48 -58 -74 -63 -238 -3
-130 -1 -161 13 -200 39 -101 142 -156 248 -132 93 22 125 46 157 118 17 37
20 66 20 193 0 140 -2 154 -25 202 -37 77 -90 111 -180 115 -52 2 -80 -2 -107
-16z m144 -146 c15 -17 18 -43 18 -144 0 -124 -7 -154 -39 -179 -24 -18 -36
-16 -70 13 l-31 26 0 131 c0 110 3 136 18 153 30 38 74 38 104 0z"/>
<path d="M5461 4933 c-6 -16 -26 -55 -45 -88 -38 -68 -111 -206 -182 -345 -27
-52 -51 -97 -54 -100 -3 -3 -18 -30 -33 -60 -36 -68 -121 -228 -157 -295 -15
-27 -49 -90 -75 -140 -26 -49 -60 -113 -76 -142 -16 -29 -29 -54 -29 -57 0 -4
37 -6 83 -6 l83 0 30 58 c17 31 61 116 99 187 37 72 71 135 75 140 4 6 31 55
60 110 28 55 85 163 126 240 40 77 93 178 116 225 24 47 45 87 48 90 10 10
100 189 100 199 0 7 -30 11 -79 11 -77 0 -79 -1 -90 -27z"/>
<path d="M3440 4907 c-76 -27 -129 -69 -176 -142 -18 -28 -19 -52 -19 -460 l0
-430 33 -52 c33 -52 66 -81 129 -115 26 -14 57 -18 139 -18 125 0 170 17 240
88 73 74 74 83 74 528 0 442 0 443 -77 521 -61 63 -123 88 -223 90 -47 1 -101
-4 -120 -10z m170 -172 c53 -28 55 -35 58 -370 5 -377 1 -424 -38 -465 -24
-26 -35 -30 -82 -30 -44 0 -58 4 -74 23 -42 47 -44 65 -44 414 0 325 1 336 22
374 13 24 34 44 57 53 46 19 65 19 101 1z"/>
<path d="M4173 4903 c-24 -8 -43 -19 -43 -24 0 -5 -5 -9 -10 -9 -22 0 -81 -66
-108 -119 l-27 -56 0 -395 c0 -382 1 -396 21 -440 28 -60 93 -124 151 -151 65
-30 231 -31 283 -3 105 58 152 117 169 215 12 73 14 430 2 664 -7 148 -7 151
-41 202 -34 52 -94 97 -159 120 -48 17 -185 14 -238 -4z m182 -167 c62 -26 65
-45 65 -427 0 -351 -2 -369 -44 -416 -15 -18 -30 -23 -72 -23 -45 0 -57 4 -82
30 -27 27 -31 38 -37 112 -4 46 -5 209 -3 363 3 315 7 330 77 359 46 19 54 19
96 2z"/>
<path d="M2807 4809 l-97 -91 0 -114 c0 -63 3 -114 6 -114 3 0 45 39 93 87
l86 86 5 -479 5 -479 98 -3 97 -3 0 601 0 600 -98 0 -98 0 -97 -91z"/>
<path d="M7340 4885 c-7 -9 -8 -15 -2 -15 5 0 12 7 16 15 3 8 4 15 2 15 -2 0
-9 -7 -16 -15z"/>
<path d="M884 4782 c-20 -26 -20 -28 -3 -46 17 -18 18 -18 42 0 24 18 24 20 9
47 -20 33 -22 33 -48 -1z"/>
<path d="M7111 4794 c0 -11 3 -14 6 -6 3 7 2 16 -1 19 -3 4 -6 -2 -5 -13z"/>
<path d="M7305 4740 c3 -5 8 -10 11 -10 2 0 4 5 4 10 0 6 -5 10 -11 10 -5 0
-7 -4 -4 -10z"/>
<path d="M872 4620 c-7 -12 -18 -18 -24 -14 -13 8 -3 -12 20 -38 14 -16 16
-16 35 9 15 18 18 30 10 41 -14 24 -27 24 -41 2z"/>
<path d="M7760 4500 c0 -5 5 -10 10 -10 6 0 10 5 10 10 0 6 -4 10 -10 10 -5 0
-10 -4 -10 -10z"/>
<path d="M848 4446 c-16 -23 -16 -25 2 -41 19 -17 21 -17 44 8 23 24 23 27 7
41 -23 21 -33 20 -53 -8z"/>
<path d="M7682 4416 c7 -8 15 -12 17 -11 5 6 -10 25 -20 25 -5 0 -4 -6 3 -14z"/>
<path d="M5480 4334 c-78 -30 -122 -67 -146 -122 -22 -53 -20 -347 3 -393 42
-84 133 -135 216 -123 71 11 145 52 172 95 24 37 25 45 25 220 0 209 -7 232
-89 291 -37 27 -56 33 -106 35 -33 1 -67 0 -75 -3z m107 -162 c8 -12 12 -57
13 -148 0 -118 -2 -134 -21 -158 -24 -31 -45 -33 -79 -6 -24 18 -25 25 -29
136 -4 126 8 190 37 197 27 8 64 -3 79 -21z"/>
<path d="M860 4295 c0 -7 -8 -18 -17 -24 -17 -9 -16 -11 1 -30 24 -26 27 -26
49 4 15 20 15 28 5 45 -15 23 -38 27 -38 5z"/>
<path d="M7567 4279 c-21 -25 -25 -35 -16 -45 17 -21 41 -17 68 11 23 25 23
26 6 45 -24 26 -26 26 -58 -11z"/>
<path d="M6580 4150 c0 -5 8 -10 19 -10 10 0 30 -11 45 -25 26 -24 34 -45 16
-45 -5 0 -14 -15 -19 -32 -5 -18 -10 -25 -10 -15 -1 9 -6 17 -12 17 -7 0 -10
-12 -7 -29 3 -23 1 -27 -14 -23 -14 3 -17 0 -12 -14 5 -18 5 -18 -6 -1 -17 27
-28 20 -24 -15 3 -27 1 -30 -7 -15 -14 23 -28 22 -22 -3 4 -16 2 -19 -11 -14
-9 3 -16 1 -16 -5 0 -18 -18 -13 -40 11 -11 12 -23 18 -27 15 -11 -12 35 -48
82 -64 37 -12 51 -13 81 -3 40 13 84 54 84 76 0 8 5 14 10 14 6 0 10 23 10 50
0 28 -4 50 -9 50 -5 0 -11 10 -15 23 -3 13 -23 33 -45 45 -43 25 -51 26 -51
12z m100 -95 c0 -8 -4 -15 -10 -15 -5 0 -7 7 -4 15 4 8 8 15 10 15 2 0 4 -7 4
-15z"/>
<path d="M6498 4143 c7 -3 16 -2 19 1 4 3 -2 6 -13 5 -11 0 -14 -3 -6 -6z"/>
<path d="M853 4116 c-21 -24 -21 -24 -2 -42 19 -17 21 -17 45 8 24 23 24 26 9
42 -22 21 -28 20 -52 -8z"/>
<path d="M7567 4112 c-36 -40 -5 -82 34 -46 23 20 22 57 -2 62 -8 1 -23 -6
-32 -16z"/>
<path d="M7405 4099 c-4 -6 -5 -12 -2 -15 2 -3 7 2 10 11 7 17 1 20 -8 4z"/>
<path d="M7350 4090 c0 -5 5 -10 10 -10 6 0 10 5 10 10 0 6 -4 10 -10 10 -5 0
-10 -4 -10 -10z"/>
<path d="M6421 4064 c0 -11 3 -14 6 -6 3 7 2 16 -1 19 -3 4 -6 -2 -5 -13z"/>
<path d="M6625 4060 c3 -5 8 -10 11 -10 2 0 4 5 4 10 0 6 -5 10 -11 10 -5 0
-7 -4 -4 -10z"/>
<path d="M6421 3974 c0 -11 3 -14 6 -6 3 7 2 16 -1 19 -3 4 -6 -2 -5 -13z"/>
<path d="M867 3951 c-9 -10 -15 -25 -11 -34 10 -28 35 -29 60 -2 l23 25 -22
15 c-26 18 -28 18 -50 -4z"/>
<path d="M7547 3942 c-23 -25 -21 -38 5 -56 20 -14 22 -14 34 7 25 43 27 49
13 58 -21 13 -34 11 -52 -9z"/>
<path d="M7180 3910 c0 -5 5 -10 10 -10 6 0 10 5 10 10 0 6 -4 10 -10 10 -5 0
-10 -4 -10 -10z"/>
<path d="M887 3785 c-19 -26 -16 -45 8 -45 7 0 16 -6 18 -12 4 -10 6 -9 6 1 1
7 10 22 21 31 20 17 20 18 -5 34 -30 20 -26 20 -48 -9z"/>
<path d="M7112 3785 c0 -16 2 -22 5 -12 2 9 2 23 0 30 -3 6 -5 -1 -5 -18z"/>
<path d="M7532 3775 c-20 -19 -22 -26 -13 -44 14 -26 19 -26 47 0 22 21 23 54
1 62 -7 2 -23 -6 -35 -18z"/>
<path d="M916 3618 c-14 -20 -14 -24 -1 -38 13 -12 19 -12 33 -2 9 7 25 15 35
18 16 6 15 8 -4 25 -29 25 -44 24 -63 -3z"/>
<path d="M7502 3613 c-20 -22 -22 -31 -13 -50 12 -25 31 -31 31 -9 0 7 9 16
20 19 25 6 25 18 3 46 l-18 21 -23 -27z"/>
<path d="M970 3471 c0 -5 -9 -12 -19 -16 -24 -7 -17 -32 11 -41 13 -4 28 2 44
17 22 21 22 23 6 35 -20 16 -42 18 -42 5z"/>
<path d="M6061 3438 c-12 -24 -26 -50 -31 -58 -12 -19 -59 -102 -101 -176 -17
-33 -38 -69 -46 -80 -13 -20 -11 -24 37 -53 28 -17 52 -31 54 -31 2 0 50 -27
105 -60 56 -33 104 -60 106 -60 3 0 23 -11 44 -24 21 -13 80 -48 131 -76 103
-57 101 -58 144 21 37 68 58 105 76 134 10 17 29 50 42 75 13 25 29 51 36 58
17 19 15 52 -3 52 -8 0 -15 4 -15 9 0 5 -13 14 -30 19 -26 9 -32 8 -45 -11 -8
-12 -15 -27 -15 -34 0 -7 -4 -13 -9 -13 -5 0 -14 -12 -20 -27 -6 -16 -20 -41
-30 -58 -11 -16 -30 -49 -42 -72 -13 -24 -24 -43 -26 -43 -2 0 -20 10 -41 23
-20 12 -50 29 -66 37 -16 8 -31 20 -33 27 -3 7 18 50 46 96 28 47 51 90 51 96
0 6 5 11 10 11 21 0 9 37 -17 51 -16 8 -31 18 -34 23 -14 19 -37 -5 -87 -89
-29 -47 -52 -90 -52 -94 0 -4 -8 -15 -19 -25 -16 -15 -19 -15 -31 -1 -7 8 -16
15 -21 15 -5 0 -28 12 -50 26 -36 22 -40 29 -34 52 4 15 12 34 19 42 12 14 46
73 92 160 11 19 22 36 26 38 14 6 -68 62 -91 62 -4 0 -17 -19 -30 -42z"/>
<path d="M7461 3446 c-20 -21 -21 -27 -9 -45 16 -26 20 -26 47 3 20 21 21 27
9 45 -16 26 -20 26 -47 -3z"/>
<path d="M2190 3394 c-55 -21 -157 -75 -228 -121 -111 -73 -136 -111 -137
-214 0 -57 5 -85 20 -114 47 -90 130 -144 221 -145 41 0 69 9 143 46 50 25 91
50 91 54 0 9 -32 72 -40 80 -3 3 -11 16 -18 30 -21 42 -39 71 -50 82 -12 12
-49 4 -76 -17 -19 -14 -19 -15 0 -52 10 -21 22 -39 27 -41 18 -8 4 -31 -27
-46 -50 -24 -99 -20 -135 9 -58 49 -64 130 -13 177 62 56 247 158 289 158 11
0 38 -13 61 -30 44 -31 59 -71 50 -131 -5 -35 5 -43 69 -53 l41 -6 7 39 c16
98 -50 228 -139 272 -41 21 -128 33 -156 23z"/>
<path d="M5696 3343 c-6 -14 -5 -15 5 -6 7 7 10 15 7 18 -3 3 -9 -2 -12 -12z"/>
<path d="M994 3295 l-21 -23 23 -13 c20 -10 27 -10 42 4 10 10 25 17 32 17 12
0 12 2 0 14 -26 25 -54 25 -76 1z"/>
<path d="M7416 3284 c-15 -21 -16 -31 -7 -50 l10 -24 27 25 c24 22 26 28 16
50 -14 31 -22 31 -46 -1z"/>
<path d="M5636 3253 c-6 -14 -5 -15 5 -6 7 7 10 15 7 18 -3 3 -9 -2 -12 -12z"/>
<path d="M5606 3215 c-9 -26 -7 -32 5 -12 6 10 9 21 6 23 -2 3 -7 -2 -11 -11z"/>
<path d="M5563 3163 c-7 -2 -13 -9 -13 -13 0 -5 -29 -38 -65 -74 -36 -36 -65
-68 -65 -71 0 -7 125 117 149 148 14 18 14 19 -6 10z"/>
<path d="M1053 3136 c-29 -30 -29 -32 1 -40 31 -8 81 35 63 53 -17 17 -40 13
-64 -13z"/>
<path d="M7380 3151 c0 -7 -9 -20 -20 -29 -14 -12 -18 -24 -14 -39 4 -13 9
-23 13 -23 13 0 51 40 51 53 -1 17 -30 54 -30 38z"/>
<path d="M5670 2879 c-80 -82 -147 -154 -149 -160 -2 -6 104 -116 235 -245
l239 -233 153 154 c83 84 152 158 152 162 0 18 -68 75 -80 68 -7 -4 -55 -52
-108 -106 -52 -55 -100 -99 -106 -99 -6 0 -36 25 -67 56 l-57 57 94 95 95 95
-41 41 -41 41 -88 -92 c-49 -51 -94 -93 -100 -93 -16 0 -111 90 -111 104 1 6
48 61 105 121 l104 110 -37 38 c-20 20 -39 37 -42 36 -3 0 -70 -68 -150 -150z"/>
<path d="M1123 2990 c-3 -11 -12 -20 -19 -20 -24 0 -15 -18 13 -25 20 -5 31
-1 49 18 21 23 21 24 3 35 -27 17 -40 15 -46 -8z"/>
<path d="M2455 2857 c-180 -183 -208 -218 -225 -279 -24 -90 29 -206 124 -269
47 -31 58 -34 126 -34 57 0 82 5 105 20 40 25 365 350 365 364 0 6 -18 28 -40
50 l-40 38 -97 -100 c-251 -256 -252 -257 -306 -257 -45 1 -79 23 -110 72 -39
63 -22 93 171 289 87 88 158 163 160 167 1 4 -17 26 -40 49 l-43 42 -150 -152z"/>
<path d="M5385 2975 c-11 -13 -25 -24 -31 -25 -7 0 -15 -7 -18 -16 -6 -15 -4
-15 11 -3 33 26 66 59 62 64 -3 2 -13 -7 -24 -20z"/>
<path d="M7302 2972 c-17 -17 -22 -31 -18 -48 7 -27 24 -32 32 -9 4 8 12 15
20 15 18 0 19 44 2 57 -9 6 -20 2 -36 -15z"/>
<path d="M5285 2890 c-3 -6 1 -7 9 -4 18 7 21 14 7 14 -6 0 -13 -4 -16 -10z"/>
<path d="M5240 2860 c-9 -6 -10 -10 -3 -10 6 0 15 5 18 10 8 12 4 12 -15 0z"/>
<path d="M1178 2825 l-27 -24 29 -6 c24 -5 37 -1 60 18 28 24 29 25 7 31 -34
9 -40 7 -69 -19z"/>
<path d="M7232 2813 c-25 -28 -26 -32 -12 -53 7 -12 12 -12 29 4 21 19 28 60
13 70 -4 2 -17 -7 -30 -21z"/>
<path d="M7170 2700 c0 -8 -9 -23 -19 -34 -14 -15 -17 -30 -14 -54 l6 -34 28
32 c16 17 29 39 29 48 -1 21 -30 62 -30 42z"/>
<path d="M1252 2675 l-22 -22 30 -7 c23 -4 37 -1 52 14 12 11 27 20 32 20 6 0
4 5 -4 10 -25 16 -64 9 -88 -15z"/>
<path d="M5390 2628 c-25 -17 -62 -40 -83 -52 -21 -12 -46 -26 -55 -31 -31
-19 -97 -60 -117 -73 -11 -6 -29 -16 -40 -21 -44 -19 -48 -36 -20 -80 27 -43
45 -50 65 -26 7 8 16 15 21 15 4 0 25 11 45 25 21 14 42 24 48 22 9 -3 36 -42
53 -77 4 -8 18 -31 31 -50 13 -19 28 -44 33 -55 5 -11 18 -33 29 -50 11 -16
23 -37 27 -45 4 -8 20 -34 35 -56 15 -23 28 -46 28 -52 0 -6 3 -12 8 -14 4 -1
15 -16 24 -33 13 -22 24 -30 42 -28 29 2 101 53 88 62 -8 6 -132 208 -132 216
0 2 -13 23 -29 47 -16 24 -37 59 -48 78 -10 19 -31 54 -46 77 -15 24 -27 47
-27 52 0 5 15 16 33 25 38 20 64 35 95 58 18 13 20 19 10 30 -7 7 -19 25 -25
41 -16 35 -37 34 -93 -5z"/>
<path d="M1360 2557 c0 -8 -11 -20 -25 -27 -18 -10 -22 -16 -13 -22 24 -15 57
-8 81 16 l25 25 -31 10 c-38 14 -37 14 -37 -2z"/>
<path d="M7073 2526 c-26 -27 -31 -76 -8 -76 8 0 15 7 15 15 0 8 7 15 15 15
10 0 15 11 15 35 0 41 -7 43 -37 11z"/>
<path d="M3130 2533 c0 -5 -28 -30 -62 -58 -34 -27 -72 -59 -84 -70 -32 -29
-63 -55 -119 -100 -27 -22 -54 -45 -60 -51 -5 -6 -52 -46 -102 -89 -51 -42
-93 -80 -93 -84 0 -3 22 -19 50 -34 55 -31 65 -29 114 22 17 17 33 31 37 31 5
0 28 -13 52 -30 25 -16 50 -30 55 -30 6 0 17 -6 24 -12 7 -7 30 -22 51 -32 27
-14 36 -24 32 -35 -4 -9 -9 -38 -12 -66 l-5 -50 51 -28 51 -27 10 26 c6 14 10
35 10 46 0 12 7 57 15 102 8 45 22 122 30 171 9 50 20 110 25 135 5 25 14 77
20 115 5 39 13 80 16 92 5 18 1 25 -19 32 -14 5 -28 15 -32 20 -7 12 -55 15
-55 4z m-43 -271 c-9 -37 -18 -88 -22 -114 -3 -26 -10 -50 -15 -53 -10 -6 -83
30 -108 53 -7 6 -20 12 -28 12 -15 0 -20 26 -5 32 5 2 35 26 67 54 107 94 119
103 123 92 2 -5 -4 -40 -12 -76z"/>
<path d="M1433 2396 c-31 -32 -29 -36 12 -36 24 0 35 5 35 14 0 8 9 18 20 21
31 10 24 25 -12 25 -22 0 -41 -9 -55 -24z"/>
<path d="M7000 2408 c0 -10 -9 -23 -20 -30 -14 -9 -20 -24 -20 -47 l0 -35 30
29 c31 29 37 58 20 85 -8 13 -10 12 -10 -2z"/>
<path d="M4923 2376 c-18 -6 -34 -14 -37 -16 -7 -7 21 -118 77 -307 15 -52 20
-83 13 -83 -6 0 -31 19 -56 41 -72 65 -171 153 -225 200 -27 24 -55 50 -61 58
-8 10 -24 12 -67 7 -68 -9 -70 -13 -41 -113 8 -29 21 -78 29 -108 23 -83 42
-151 71 -250 14 -49 30 -110 35 -135 5 -24 13 -48 18 -53 8 -8 99 10 114 22 4
4 3 20 -2 37 -5 16 -16 58 -26 94 -21 82 -41 152 -60 214 -17 52 -12 73 9 43
7 -9 16 -17 20 -17 4 0 19 -13 34 -28 15 -15 61 -57 102 -92 41 -36 81 -72 90
-80 95 -90 109 -99 143 -88 17 5 40 12 50 15 22 7 22 34 -4 119 -11 38 -27 91
-35 118 -7 26 -14 56 -14 65 0 10 -3 21 -7 25 -5 4 -13 29 -20 54 -6 26 -19
74 -28 107 -9 33 -21 83 -28 110 -11 43 -16 50 -37 52 -14 0 -39 -4 -57 -11z"/>
<path d="M3431 2293 c-24 -94 -44 -167 -66 -248 -7 -27 -25 -97 -40 -155 -15
-58 -31 -115 -37 -127 -12 -25 -4 -43 20 -43 9 -1 34 -7 54 -14 l38 -14 11 42
c6 22 17 64 25 91 7 28 17 66 22 85 9 38 25 45 76 36 35 -7 30 7 83 -233 l18
-82 45 -11 c25 -6 56 -14 69 -17 22 -5 23 -4 16 23 -10 37 -33 145 -45 207 -5
26 -12 57 -15 67 -5 16 -2 20 15 20 31 0 96 45 125 87 20 31 25 50 25 101 0
77 -18 119 -67 158 -41 33 -114 59 -263 93 -19 5 -47 11 -61 15 -25 7 -26 5
-48 -81z m163 -62 c3 -5 26 -12 50 -15 30 -5 56 -17 77 -37 28 -26 31 -34 26
-69 -5 -41 -18 -59 -55 -79 -23 -12 -99 -3 -163 21 -25 9 -26 12 -18 54 5 24
13 53 19 63 5 11 10 31 10 45 0 21 5 26 24 26 14 0 27 -4 30 -9z"/>
<path d="M1538 2260 l-26 -30 30 0 c20 0 39 9 53 24 l22 24 -21 6 c-30 8 -29
9 -58 -24z"/>
<path d="M6877 2247 c-28 -32 -31 -44 -21 -71 5 -12 12 -9 35 17 30 33 32 40
21 69 -6 15 -11 13 -35 -15z"/>
<path d="M4160 2236 c0 -8 -6 -30 -14 -48 -8 -18 -21 -49 -30 -70 -9 -20 -16
-41 -16 -47 0 -6 -4 -19 -10 -29 -5 -9 -26 -60 -45 -112 -20 -52 -40 -102 -44
-110 -5 -9 -12 -30 -15 -48 -4 -17 -12 -34 -17 -37 -5 -4 -9 -14 -9 -23 -1 -9
-9 -35 -20 -57 -33 -68 -29 -75 40 -75 65 0 58 -6 98 93 13 31 18 31 170 21
l91 -7 17 -58 18 -59 63 0 c35 0 63 4 63 8 0 10 -76 235 -90 267 -5 11 -19 52
-31 90 -12 39 -26 74 -31 80 -4 5 -8 17 -8 26 0 10 -5 30 -12 46 -6 15 -21 57
-33 93 l-22 65 -57 3 c-45 2 -56 0 -56 -12z m95 -286 c14 -47 30 -95 36 -108
5 -13 9 -27 9 -32 0 -6 -38 -10 -85 -10 -59 0 -85 4 -85 12 0 10 40 126 72
211 6 15 14 24 19 20 4 -4 19 -46 34 -93z"/>
<path d="M1638 2135 c-10 -13 -18 -29 -18 -34 0 -23 43 -9 76 24 l34 35 -38 0
c-27 -1 -42 -7 -54 -25z"/>
<path d="M6790 2138 c0 -10 -9 -23 -20 -30 -14 -9 -20 -24 -20 -51 l0 -39 35
42 c40 48 40 49 20 76 -13 17 -14 17 -15 2z"/>
<path d="M1770 2027 c0 -7 -15 -22 -32 -32 l-33 -20 33 -3 c28 -3 41 3 70 32
l35 36 -36 0 c-24 0 -37 -5 -37 -13z"/>
<path d="M6680 2005 c-7 -14 -19 -25 -26 -25 -14 0 -26 -51 -14 -64 5 -5 14 1
22 13 7 11 18 21 25 21 8 0 13 15 13 40 0 22 -1 40 -3 40 -2 0 -10 -11 -17
-25z"/>
<path d="M1863 1885 l-31 -35 28 0 c15 0 34 7 41 17 8 9 28 24 44 35 l30 18
-40 0 c-33 0 -46 -7 -72 -35z"/>
<path d="M6560 1885 c-7 -14 -19 -25 -26 -25 -13 0 -24 -54 -14 -70 4 -6 12 0
20 15 7 14 19 25 27 25 9 0 13 13 13 40 0 22 -1 40 -3 40 -2 0 -10 -11 -17
-25z"/>
<path d="M1990 1775 l-34 -35 37 0 c23 0 37 5 37 13 0 6 15 22 33 35 l32 22
-36 0 c-27 0 -43 -8 -69 -35z"/>
<path d="M6423 1755 c-25 -28 -33 -46 -32 -73 0 -31 2 -33 9 -16 4 12 20 30
35 40 21 16 26 27 23 53 l-3 33 -32 -37z"/>
<path d="M2116 1665 c-44 -42 -46 -45 -22 -45 23 0 114 65 115 83 1 4 -10 7
-23 7 -14 0 -42 -17 -70 -45z"/>
<path d="M6292 1645 c-20 -21 -36 -49 -39 -72 l-6 -37 35 40 c44 49 63 83 51
95 -5 5 -23 -6 -41 -26z"/>
<path d="M2295 1600 c-25 -10 -81 -68 -73 -75 11 -11 63 17 95 51 27 27 30 34
16 33 -10 0 -27 -4 -38 -9z"/>
<path d="M6165 1554 c-37 -38 -58 -76 -53 -96 5 -25 90 77 86 104 -3 23 -4 22
-33 -8z"/>
<path d="M2435 1510 c-11 -4 -38 -26 -60 -49 -29 -30 -34 -41 -22 -41 24 0 52
18 97 63 37 37 32 47 -15 27z"/>
<path d="M6020 1450 c-34 -36 -60 -80 -60 -101 0 -5 23 14 50 42 31 32 50 60
50 75 0 13 -1 23 -2 23 -2 -1 -19 -19 -38 -39z"/>
<path d="M2600 1436 c-37 -18 -126 -106 -107 -106 23 0 77 33 77 48 0 6 3 12
8 12 4 0 22 14 41 30 34 31 26 38 -19 16z"/>
<path d="M5880 1367 c-37 -41 -70 -95 -70 -113 0 -10 97 95 109 118 25 48 6
46 -39 -5z"/>
<path d="M2744 1360 c-12 -4 -30 -20 -42 -34 -11 -14 -23 -26 -26 -26 -13 0
-45 -40 -36 -45 15 -9 51 14 96 60 23 23 47 45 55 48 9 3 7 5 -6 6 -11 0 -30
-4 -41 -9z"/>
<path d="M3733 1363 c9 -2 23 -2 30 0 6 3 -1 5 -18 5 -16 0 -22 -2 -12 -5z"/>
<path d="M4550 1358 c-47 -5 -209 -12 -360 -16 -151 -4 -281 -11 -287 -15 -19
-12 -16 -27 5 -21 10 4 13 3 6 -3 -6 -4 -13 -16 -17 -25 -4 -13 -15 -17 -37
-14 -20 2 -29 -1 -27 -8 2 -6 11 -10 20 -10 9 1 14 -2 11 -7 -2 -5 -18 -7 -34
-5 -32 4 -37 -2 -17 -23 6 -8 7 -11 1 -8 -6 3 -18 -3 -28 -14 -12 -14 -23 -18
-39 -13 -18 5 -20 4 -9 -7 17 -18 15 -30 -3 -23 -9 4 -15 0 -15 -10 0 -10 -9
-16 -24 -16 -15 0 -26 -7 -29 -21 -5 -20 -5 -20 26 -1 38 22 67 33 67 26 0 -3
-61 -66 -135 -140 -105 -106 -138 -134 -154 -129 -11 3 -25 -1 -34 -10 -9 -8
-22 -15 -29 -15 -8 -1 -6 -6 6 -15 15 -11 16 -15 5 -15 -8 0 -23 -9 -33 -21
-11 -13 -25 -19 -37 -16 -24 6 -25 -9 -1 -22 13 -8 10 -10 -16 -7 -25 3 -32 0
-30 -13 2 -10 -4 -15 -15 -15 -10 1 -16 -3 -14 -10 2 -6 14 -12 26 -12 12 -1
24 -4 28 -8 3 -3 -8 -4 -26 -2 -28 3 -31 1 -25 -18 6 -20 6 -20 -13 -3 -23 20
-78 23 -98 5 -31 -28 -70 -54 -102 -68 -13 -5 -23 -14 -23 -19 0 -5 -11 -12
-25 -15 -14 -4 -25 -11 -25 -16 0 -6 -4 -10 -9 -10 -5 0 -44 -23 -86 -51 -42
-27 -82 -52 -89 -55 -8 -3 -17 11 -25 38 -7 24 -18 54 -23 68 -12 30 -59 173
-84 254 -18 61 -53 106 -82 106 -9 0 -30 -7 -46 -15 -15 -8 -32 -15 -37 -15
-5 0 -39 -14 -76 -31 -116 -52 -133 -59 -148 -59 -7 0 -15 -3 -17 -7 -3 -9
-108 -53 -124 -53 -6 0 -18 53 -28 118 -32 212 -48 307 -53 312 -6 5 -3 -29
16 -190 6 -47 13 -115 16 -152 7 -73 32 -118 66 -118 10 0 19 4 19 9 0 5 12
12 28 15 15 4 41 13 57 20 30 14 41 19 130 56 28 11 58 25 67 30 10 6 23 10
31 10 7 0 29 9 50 20 60 32 70 28 91 -43 10 -34 24 -80 31 -102 7 -22 27 -87
44 -145 41 -133 51 -153 83 -164 22 -8 36 -2 96 37 38 26 73 47 76 47 4 0 16
8 27 18 10 11 32 25 47 33 15 8 29 16 32 19 15 15 71 50 80 50 5 0 10 3 10 8
0 12 63 43 71 35 9 -10 57 -99 148 -278 39 -76 77 -143 84 -147 25 -16 56 -7
95 30 199 187 306 282 317 282 9 0 22 -14 85 -95 30 -38 59 -75 65 -82 27 -32
32 -40 43 -58 12 -20 12 -20 10 0 -2 11 -11 27 -20 36 -10 9 -18 21 -18 28 0
12 -69 114 -114 167 -34 41 -77 46 -110 12 -12 -13 -46 -44 -76 -69 -30 -26
-83 -73 -117 -106 -89 -86 -93 -89 -93 -69 0 9 7 16 15 16 8 0 15 7 15 15 0 8
7 15 15 15 8 0 15 7 15 15 0 8 7 15 15 15 8 0 15 7 15 15 0 8 6 15 13 15 6 0
21 14 32 30 11 16 26 30 32 30 7 0 15 11 19 25 5 22 9 24 22 13 13 -11 15 -10
9 4 -4 12 -2 18 8 18 8 0 15 7 15 15 0 9 9 15 21 15 15 0 19 4 15 16 -5 13 -2
15 14 11 17 -4 20 -2 15 14 -4 13 -2 19 9 19 9 0 16 7 16 15 0 8 7 15 15 15 8
0 15 7 15 15 0 9 9 15 21 15 15 0 19 5 15 15 -3 9 0 15 9 15 8 0 17 11 21 25
6 24 18 32 27 18 2 -5 3 -3 1 3 -3 17 16 42 22 27 7 -15 45 5 77 39 12 13 28
23 35 20 7 -2 12 2 12 8 0 6 33 46 74 88 41 42 94 98 119 125 24 26 53 47 63
47 15 0 16 2 5 13 -11 10 -14 10 -18 0 -3 -7 -11 -13 -19 -13 -8 0 -14 -5 -14
-12 0 -6 -2 -9 -5 -7 -11 12 9 48 31 53 13 4 24 13 24 21 0 10 6 12 18 8 15
-6 15 -5 3 10 -11 15 -11 17 2 17 8 0 17 -6 20 -12 2 -8 8 -9 13 -4 5 5 4 11
-3 13 -18 6 -16 30 1 36 11 4 13 1 9 -11 -6 -14 -5 -15 9 -2 11 11 13 19 6 28
-8 9 -6 12 6 12 9 0 16 7 16 15 0 14 11 19 38 16 6 -1 12 2 12 8 0 5 -6 12
-12 14 -7 3 -1 6 15 6 28 1 37 16 15 24 -7 2 5 8 27 12 22 4 45 11 50 15 6 5
24 10 40 13 56 8 -32 4 -125 -5z m-557 -35 c-13 -2 -35 -2 -50 0 -16 2 -5 4
22 4 28 0 40 -2 28 -4z m-210 -245 c8 -22 -11 -58 -38 -70 -14 -6 -25 -15 -25
-20 0 -4 -7 -8 -15 -8 -8 0 -15 -4 -15 -9 0 -5 -15 -18 -32 -29 -18 -11 -48
-31 -67 -43 -51 -34 -29 -6 74 98 90 91 109 104 118 81z m127 4 c0 -4 -58 -65
-128 -135 l-128 -128 -24 19 c-22 18 -23 23 -12 43 7 13 38 42 70 64 31 22 66
47 77 57 88 74 145 106 145 80z m164 -10 c3 -5 -53 -66 -124 -137 -130 -130
-160 -147 -160 -92 0 23 15 38 123 127 17 14 53 44 79 68 47 41 71 51 82 34z
m176 -3 c0 -17 -256 -269 -274 -269 -10 0 -16 9 -16 23 -1 31 235 257 267 257
13 0 23 -5 23 -11z m-302 -20 c1 -8 -5 -24 -15 -36 -26 -29 -203 -163 -216
-163 -7 0 38 50 98 110 60 61 114 109 120 107 5 -2 11 -10 13 -18z m365 6 c-3
-9 -8 -14 -10 -11 -3 3 -2 9 2 15 9 16 15 13 8 -4z m-213 -44 c-5 -11 -19 -26
-30 -34 -10 -7 -43 -36 -72 -63 -173 -160 -197 -148 -33 16 99 99 131 126 138
115 4 -8 3 -23 -3 -34z m175 29 c3 -5 2 -16 -2 -25 -8 -13 -185 -195 -216
-221 -21 -17 -46 -23 -49 -12 -4 10 239 265 254 267 4 1 10 -3 13 -9z m-761
-784 c-6 -16 -34 -30 -34 -18 0 10 22 32 32 32 4 0 5 -6 2 -14z"/>
<path d="M3780 1350 c0 -6 27 -10 60 -10 33 0 60 4 60 10 0 6 -27 10 -60 10
-33 0 -60 -4 -60 -10z"/>
<path d="M5728 1282 c-49 -51 -68 -81 -68 -109 0 -15 2 -14 16 5 9 13 33 40
54 60 34 34 58 78 48 88 -2 2 -25 -18 -50 -44z"/>
<path d="M2912 1303 c-7 -3 -43 -35 -80 -70 -58 -57 -63 -65 -39 -59 15 4 58
36 95 71 59 58 66 75 24 58z"/>
<path d="M3840 1290 c0 -5 5 -10 10 -10 6 0 10 5 10 10 0 6 -4 10 -10 10 -5 0
-10 -4 -10 -10z"/>
<path d="M3870 1285 c0 -8 5 -15 10 -15 6 0 10 7 10 15 0 8 -4 15 -10 15 -5 0
-10 -7 -10 -15z"/>
<path d="M5573 1205 c-38 -38 -63 -72 -63 -85 0 -18 7 -14 49 27 43 43 88 110
79 118 -2 1 -31 -26 -65 -60z"/>
<path d="M3075 1248 c-29 -16 -148 -138 -142 -145 9 -8 55 28 116 91 55 55 64
74 26 54z"/>
<path d="M2018 1203 c7 -3 16 -2 19 1 4 3 -2 6 -13 5 -11 0 -14 -3 -6 -6z"/>
<path d="M3234 1197 c-6 -7 -46 -45 -89 -85 -73 -68 -95 -104 -42 -69 27 18
167 153 167 161 0 10 -25 6 -36 -7z"/>
<path d="M3765 1200 c3 -5 8 -10 11 -10 2 0 4 5 4 10 0 6 -5 10 -11 10 -5 0
-7 -4 -4 -10z"/>
<path d="M5412 1135 c-39 -42 -72 -82 -72 -90 0 -8 2 -15 4 -15 10 0 126 125
126 136 0 7 5 14 12 16 6 2 9 9 7 16 -2 7 -37 -22 -77 -63z"/>
<path d="M3316 1074 c-91 -88 -118 -127 -64 -92 32 21 178 168 178 179 0 20
-19 5 -114 -87z"/>
<path d="M5323 1153 c-7 -3 -13 -8 -13 -13 0 -4 -31 -39 -70 -79 -65 -65 -82
-91 -62 -91 11 0 125 120 146 153 19 31 18 37 -1 30z"/>
<path d="M3463 1021 c-113 -117 -137 -149 -85 -114 30 20 222 215 222 226 0
22 -37 -9 -137 -112z"/>
<path d="M5093 1031 c-100 -105 -111 -142 -15 -51 81 78 131 143 105 139 -5
-1 -45 -41 -90 -88z"/>
<path d="M3625 1078 c-6 -12 -41 -43 -79 -69 -81 -56 -121 -93 -68 -63 18 11
41 26 50 34 9 8 29 21 44 29 15 8 37 22 47 33 11 10 24 18 30 18 5 0 7 9 4 20
-7 26 -16 25 -28 -2z"/>
<path d="M4942 999 c-56 -56 -102 -108 -102 -117 0 -20 162 139 190 186 11 17
18 32 16 32 -1 0 -48 -45 -104 -101z"/>
<path d="M4778 967 c-65 -65 -118 -120 -118 -123 0 -18 34 8 103 79 102 103
139 146 135 155 -2 4 -56 -46 -120 -111z"/>
<path d="M4614 945 c-70 -69 -119 -125 -111 -125 9 0 68 52 131 116 104 104
128 134 111 134 -3 0 -62 -56 -131 -125z"/>
<path d="M4295 930 c-152 -153 -140 -140 -133 -140 8 0 268 258 268 265 0 10
-8 3 -135 -125z"/>
<path d="M4451 933 c-68 -68 -121 -127 -117 -130 9 -9 249 232 245 245 -2 5
-60 -47 -128 -115z"/>
<path d="M3365 1030 c-3 -6 1 -7 9 -4 18 7 21 14 7 14 -6 0 -13 -4 -16 -10z"/>
<path d="M3430 890 c0 -16 4 -30 8 -30 5 0 9 14 9 30 0 17 -4 30 -9 30 -4 0
-8 -13 -8 -30z"/>
<path d="M3365 799 c-4 -11 -4 -23 -1 -26 3 -4 6 1 6 10 0 10 5 17 10 17 6 0
10 5 10 10 0 18 -19 10 -25 -11z"/>
<path d="M3870 610 c0 -5 5 -10 10 -10 6 0 10 5 10 10 0 6 -4 10 -10 10 -5 0
-10 -4 -10 -10z"/>
</g>
</svg>
